<svg xmlns="http://www.w3.org/2000/svg" width="1500" height="1060" viewBox="0 0 1500 1060" role="img" aria-labelledby="title"><title id="title">Project Gantt chart — Adaptive Continuous Authentication</title><defs><marker id="arrow" viewBox="0 0 10 10" refX="9" refY="5" markerWidth="7" markerHeight="7" orient="auto-start-reverse"><path d="M 0 0 L 10 5 L 0 10 z" fill="#63758a"/></marker></defs><rect width="100%" height="100%" fill="#fff"/><text x="750" y="45" font-family="Arial, sans-serif" font-size="27" fill="#17324d" text-anchor="middle">ADAPTIVE CONTINUOUS AUTHENTICATION</text><text x="750" y="81" font-family="Arial, sans-serif" font-size="21" fill="#17324d" text-anchor="middle">PROJECT GANTT CHART • Six-week milestone plan</text><text x="35" y="118" font-family="Arial, sans-serif" font-size="15" fill="#17324d" text-anchor="start">Relative weeks; retrospective allocation is indicative. Weeks 4–6 are planned, with no fixed submission date assumed.</text><text x="740" y="166" font-family="Arial, sans-serif" font-size="16" fill="#17324d" text-anchor="middle">WEEK 1</text><text x="865" y="166" font-family="Arial, sans-serif" font-size="16" fill="#17324d" text-anchor="middle">WEEK 2</text><text x="990" y="166" font-family="Arial, sans-serif" font-size="16" fill="#17324d" text-anchor="middle">WEEK 3</text><text x="1115" y="166" font-family="Arial, sans-serif" font-size="16" fill="#17324d" text-anchor="middle">WEEK 4</text><text x="1240" y="166" font-family="Arial, sans-serif" font-size="16" fill="#17324d" text-anchor="middle">WEEK 5</text><text x="1365" y="166" font-family="Arial, sans-serif" font-size="16" fill="#17324d" text-anchor="middle">WEEK 6</text><rect x="25" y="187" width="1450" height="38" rx="0" fill="#f3f6fa" stroke="#e3e9ef" stroke-width="1.5"/><text x="38" y="212" font-family="Arial, sans-serif" font-size="14" fill="#17324d" text-anchor="start">T01</text><text x="95" y="212" font-family="Arial, sans-serif" font-size="15" fill="#17324d" text-anchor="start">Requirements and project scope</text><rect x="686" y="194" width="108" height="24" rx="5" fill="#158575" stroke="none" stroke-width="1.5"/><rect x="25" y="225" width="1450" height="38" rx="0" fill="#fff" stroke="#e3e9ef" stroke-width="1.5"/><text x="38" y="250" font-family="Arial, sans-serif" font-size="14" fill="#17324d" text-anchor="start">T02</text><text x="95" y="250" font-family="Arial, sans-serif" font-size="15" fill="#17324d" text-anchor="start">Proposal and system design</text><rect x="686" y="232" width="108" height="24" rx="5" fill="#158575" stroke="none" stroke-width="1.5"/><rect x="811" y="232" width="108" height="24" rx="5" fill="#158575" stroke="none" stroke-width="1.5"/><rect x="25" y="263" width="1450" height="38" rx="0" fill="#f3f6fa" stroke="#e3e9ef" stroke-width="1.5"/><text x="38" y="288" font-family="Arial, sans-serif" font-size="14" fill="#17324d" text-anchor="start">T03</text><text x="95" y="288" font-family="Arial, sans-serif" font-size="15" fill="#17324d" text-anchor="start">Keyboard event collector</text><rect x="686" y="270" width="108" height="24" rx="5" fill="#158575" stroke="none" stroke-width="1.5"/><rect x="25" y="301" width="1450" height="38" rx="0" fill="#fff" stroke="#e3e9ef" stroke-width="1.5"/><text x="38" y="326" font-family="Arial, sans-serif" font-size="14" fill="#17324d" text-anchor="start">T04</text><text x="95" y="326" font-family="Arial, sans-serif" font-size="15" fill="#17324d" text-anchor="start">HMAC identifiers and protected storage</text><rect x="686" y="308" width="108" height="24" rx="5" fill="#158575" stroke="none" stroke-width="1.5"/><rect x="25" y="339" width="1450" height="38" rx="0" fill="#f3f6fa" stroke="#e3e9ef" stroke-width="1.5"/><text x="38" y="364" font-family="Arial, sans-serif" font-size="14" fill="#17324d" text-anchor="start">T05</text><text x="95" y="364" font-family="Arial, sans-serif" font-size="15" fill="#17324d" text-anchor="start">Hold / flight timing extraction</text><rect x="686" y="346" width="108" height="24" rx="5" fill="#158575" stroke="none" stroke-width="1.5"/><rect x="25" y="377" width="1450" height="38" rx="0" fill="#fff" stroke="#e3e9ef" stroke-width="1.5"/><text x="38" y="402" font-family="Arial, sans-serif" font-size="14" fill="#17324d" text-anchor="start">T06</text><text x="95" y="402" font-family="Arial, sans-serif" font-size="15" fill="#17324d" text-anchor="start">10-second windows and activity flag</text><rect x="686" y="384" width="108" height="24" rx="5" fill="#158575" stroke="none" stroke-width="1.5"/><rect x="25" y="415" width="1450" height="38" rx="0" fill="#f3f6fa" stroke="#e3e9ef" stroke-width="1.5"/><text x="38" y="440" font-family="Arial, sans-serif" font-size="14" fill="#17324d" text-anchor="start">T07</text><text x="95" y="440" font-family="Arial, sans-serif" font-size="15" fill="#17324d" text-anchor="start">Level 0 / Level 1 and use-case diagrams</text><rect x="811" y="422" width="108" height="24" rx="5" fill="#158575" stroke="none" stroke-width="1.5"/><rect x="25" y="453" width="1450" height="38" rx="0" fill="#fff" stroke="#e3e9ef" stroke-width="1.5"/><text x="38" y="478" font-family="Arial, sans-serif" font-size="14" fill="#17324d" text-anchor="start">T08</text><text x="95" y="478" font-family="Arial, sans-serif" font-size="15" fill="#17324d" text-anchor="start">Project presentation</text><rect x="811" y="460" width="108" height="24" rx="5" fill="#158575" stroke="none" stroke-width="1.5"/><rect x="25" y="491" width="1450" height="38" rx="0" fill="#f3f6fa" stroke="#e3e9ef" stroke-width="1.5"/><text x="38" y="516" font-family="Arial, sans-serif" font-size="14" fill="#17324d" text-anchor="start">T09</text><text x="95" y="516" font-family="Arial, sans-serif" font-size="15" fill="#17324d" text-anchor="start">Isolation Forest pipeline</text><rect x="936" y="498" width="108" height="24" rx="5" fill="#158575" stroke="none" stroke-width="1.5"/><rect x="25" y="529" width="1450" height="38" rx="0" fill="#fff" stroke="#e3e9ef" stroke-width="1.5"/><text x="38" y="554" font-family="Arial, sans-serif" font-size="14" fill="#17324d" text-anchor="start">T10</text><text x="95" y="554" font-family="Arial, sans-serif" font-size="15" fill="#17324d" text-anchor="start">Trust mapping and decision engine</text><rect x="936" y="536" width="108" height="24" rx="5" fill="#158575" stroke="none" stroke-width="1.5"/><rect x="25" y="567" width="1450" height="38" rx="0" fill="#f3f6fa" stroke="#e3e9ef" stroke-width="1.5"/><text x="38" y="592" font-family="Arial, sans-serif" font-size="14" fill="#17324d" text-anchor="start">T11</text><text x="95" y="592" font-family="Arial, sans-serif" font-size="15" fill="#17324d" text-anchor="start">Flask dashboard and live capture</text><rect x="936" y="574" width="108" height="24" rx="5" fill="#158575" stroke="none" stroke-width="1.5"/><rect x="25" y="605" width="1450" height="38" rx="0" fill="#fff" stroke="#e3e9ef" stroke-width="1.5"/><text x="38" y="630" font-family="Arial, sans-serif" font-size="14" fill="#17324d" text-anchor="start">T12</text><text x="95" y="630" font-family="Arial, sans-serif" font-size="15" fill="#17324d" text-anchor="start">Replay and integration checks</text><rect x="936" y="612" width="108" height="24" rx="5" fill="#158575" stroke="none" stroke-width="1.5"/><rect x="25" y="643" width="1450" height="38" rx="0" fill="#f3f6fa" stroke="#e3e9ef" stroke-width="1.5"/><text x="38" y="668" font-family="Arial, sans-serif" font-size="14" fill="#17324d" text-anchor="start">T13</text><text x="95" y="668" font-family="Arial, sans-serif" font-size="15" fill="#17324d" text-anchor="start">Revised proposal, Level 2 DFD and schedule</text><rect x="936" y="650" width="108" height="24" rx="5" fill="#158575" stroke="none" stroke-width="1.5"/><rect x="25" y="681" width="1450" height="38" rx="0" fill="#fff" stroke="#e3e9ef" stroke-width="1.5"/><text x="38" y="706" font-family="Arial, sans-serif" font-size="14" fill="#17324d" text-anchor="start">T14</text><text x="95" y="706" font-family="Arial, sans-serif" font-size="15" fill="#17324d" text-anchor="start">Additional users and recording sessions</text><rect x="1061" y="688" width="108" height="24" rx="5" fill="#3975b8" stroke="none" stroke-width="1.5"/><rect x="25" y="719" width="1450" height="38" rx="0" fill="#f3f6fa" stroke="#e3e9ef" stroke-width="1.5"/><text x="38" y="744" font-family="Arial, sans-serif" font-size="14" fill="#17324d" text-anchor="start">T15</text><text x="95" y="744" font-family="Arial, sans-serif" font-size="15" fill="#17324d" text-anchor="start">Feature quality and held-out session split</text><rect x="1061" y="726" width="108" height="24" rx="5" fill="#3975b8" stroke="none" stroke-width="1.5"/><rect x="25" y="757" width="1450" height="38" rx="0" fill="#fff" stroke="#e3e9ef" stroke-width="1.5"/><text x="38" y="782" font-family="Arial, sans-serif" font-size="14" fill="#17324d" text-anchor="start">T16</text><text x="95" y="782" font-family="Arial, sans-serif" font-size="15" fill="#17324d" text-anchor="start">Retrain and evaluate baseline</text><rect x="1186" y="764" width="108" height="24" rx="5" fill="#3975b8" stroke="none" stroke-width="1.5"/><rect x="25" y="795" width="1450" height="38" rx="0" fill="#f3f6fa" stroke="#e3e9ef" stroke-width="1.5"/><text x="38" y="820" font-family="Arial, sans-serif" font-size="14" fill="#17324d" text-anchor="start">T17</text><text x="95" y="820" font-family="Arial, sans-serif" font-size="15" fill="#17324d" text-anchor="start">Takeover trials and threshold review</text><rect x="1186" y="802" width="108" height="24" rx="5" fill="#3975b8" stroke="none" stroke-width="1.5"/><rect x="25" y="833" width="1450" height="38" rx="0" fill="#fff" stroke="#e3e9ef" stroke-width="1.5"/><text x="38" y="858" font-family="Arial, sans-serif" font-size="14" fill="#17324d" text-anchor="start">T18</text><text x="95" y="858" font-family="Arial, sans-serif" font-size="15" fill="#17324d" text-anchor="start">Latency and false-accept / reject report</text><rect x="1186" y="840" width="108" height="24" rx="5" fill="#3975b8" stroke="none" stroke-width="1.5"/><rect x="1311" y="840" width="108" height="24" rx="5" fill="#3975b8" stroke="none" stroke-width="1.5"/><rect x="25" y="871" width="1450" height="38" rx="0" fill="#f3f6fa" stroke="#e3e9ef" stroke-width="1.5"/><text x="38" y="896" font-family="Arial, sans-serif" font-size="14" fill="#17324d" text-anchor="start">T19</text><text x="95" y="896" font-family="Arial, sans-serif" font-size="15" fill="#17324d" text-anchor="start">Final report and slide update</text><rect x="1311" y="878" width="108" height="24" rx="5" fill="#3975b8" stroke="none" stroke-width="1.5"/><rect x="25" y="909" width="1450" height="38" rx="0" fill="#fff" stroke="#e3e9ef" stroke-width="1.5"/><text x="38" y="934" font-family="Arial, sans-serif" font-size="14" fill="#17324d" text-anchor="start">T20</text><text x="95" y="934" font-family="Arial, sans-serif" font-size="15" fill="#17324d" text-anchor="start">Demo rehearsal and submission preparation</text><rect x="1311" y="916" width="108" height="24" rx="5" fill="#3975b8" stroke="none" stroke-width="1.5"/><text x="35" y="990" font-family="Arial, sans-serif" font-size="17" fill="#17324d" text-anchor="start">GREEN: completed repository milestone     BLUE: planned work</text><text x="35" y="1022" font-family="Arial, sans-serif" font-size="15" fill="#17324d" text-anchor="start">Dependencies, status notes and editable week cells are included in the Excel workbook and CSV.</text></svg>